<?xml version="1.0" standalone="no"?>
<!DOCTYPE svg PUBLIC "-//W3C//DTD SVG 20010904//EN"
 "http://www.w3.org/TR/2001/REC-SVG-20010904/DTD/svg10.dtd">
<svg version="1.0" xmlns="http://www.w3.org/2000/svg"
 width="1024.000000pt" height="927.000000pt" viewBox="0 0 1024.000000 927.000000"
 preserveAspectRatio="xMidYMid meet">

<g transform="translate(0.000000,927.000000) scale(0.100000,-0.100000)"
fill="#000000" stroke="none">
<path d="M5071 8920 c-78 -44 -163 -150 -240 -300 -19 -36 -46 -85 -61 -110
-15 -25 -72 -124 -126 -220 -101 -178 -107 -190 -158 -282 -15 -29 -34 -60
-42 -69 -8 -8 -14 -20 -14 -25 0 -6 -12 -26 -26 -45 -14 -19 -33 -47 -40 -64
-8 -16 -26 -48 -39 -70 -13 -22 -30 -53 -38 -70 -8 -16 -44 -81 -81 -144 -36
-62 -66 -116 -66 -118 0 -3 -31 -58 -69 -122 -37 -64 -80 -138 -95 -166 -15
-27 -38 -68 -51 -90 -13 -22 -29 -49 -35 -60 -29 -52 -48 -86 -85 -148 -22
-38 -47 -81 -55 -96 -97 -176 -199 -359 -217 -389 -13 -20 -30 -50 -39 -67 -8
-16 -21 -39 -27 -50 -7 -11 -23 -38 -35 -60 -13 -22 -34 -58 -47 -80 -13 -22
-29 -49 -35 -60 -5 -11 -19 -33 -30 -50 -11 -16 -36 -61 -57 -100 -20 -38 -43
-79 -50 -90 -7 -11 -19 -35 -28 -52 -8 -18 -36 -68 -61 -110 -25 -43 -59 -103
-75 -133 -46 -85 -93 -166 -106 -182 -6 -7 -17 -25 -23 -38 -6 -14 -21 -42
-33 -62 -12 -20 -35 -60 -51 -90 -15 -29 -34 -60 -40 -68 -6 -8 -21 -33 -33
-55 -11 -22 -31 -58 -43 -80 -13 -22 -34 -60 -48 -85 -13 -25 -68 -121 -122
-215 -53 -93 -107 -188 -119 -210 -12 -22 -32 -57 -44 -77 -12 -21 -35 -61
-51 -90 -15 -29 -34 -60 -42 -69 -8 -8 -14 -21 -14 -27 0 -6 -6 -17 -14 -24
-7 -8 -26 -39 -41 -69 -15 -30 -38 -72 -51 -94 -13 -22 -33 -58 -45 -80 -12
-22 -47 -85 -79 -140 -31 -55 -72 -127 -89 -160 -18 -33 -63 -111 -99 -173
-37 -62 -80 -137 -97 -166 -16 -29 -35 -60 -41 -67 -6 -8 -15 -24 -18 -36 -4
-13 -11 -23 -16 -23 -4 0 -13 -12 -19 -27 -6 -16 -15 -35 -20 -43 -5 -8 -14
-26 -20 -40 -6 -14 -45 -83 -87 -155 -41 -71 -91 -161 -112 -198 -20 -38 -44
-81 -52 -95 -59 -102 -97 -168 -112 -190 -9 -15 -29 -49 -43 -75 -13 -27 -40
-72 -58 -100 -45 -73 -50 -81 -98 -177 -24 -47 -48 -92 -55 -100 -6 -8 -30
-51 -54 -95 -23 -43 -50 -90 -61 -103 -10 -14 -19 -31 -19 -38 0 -7 -6 -19
-14 -26 -8 -8 -26 -37 -40 -64 -58 -108 -102 -184 -114 -196 -6 -6 -12 -15
-12 -20 0 -4 -28 -54 -61 -110 -34 -57 -68 -116 -76 -133 -7 -16 -23 -46 -35
-65 -11 -19 -34 -60 -51 -90 -17 -30 -40 -73 -53 -95 -90 -160 -114 -226 -114
-309 0 -114 70 -205 192 -251 44 -16 210 -17 3020 -12 2819 4 4342 14 5548 37
541 11 669 18 731 44 52 22 136 115 145 162 12 56 8 132 -9 179 -17 46 -78
171 -113 230 -13 22 -30 54 -38 71 -7 17 -19 35 -25 38 -6 4 -11 13 -11 20 0
8 -14 36 -31 62 -67 107 -265 454 -364 639 -21 39 -46 82 -57 97 -10 15 -28
46 -39 70 -11 24 -31 61 -44 83 -13 22 -29 52 -36 68 -6 15 -14 27 -17 27 -4
0 -18 21 -31 47 -14 27 -39 71 -56 98 -18 28 -54 91 -80 140 -26 50 -58 106
-70 125 -22 35 -105 187 -133 245 -9 17 -28 49 -44 72 -15 23 -28 44 -28 48 0
3 -25 49 -55 101 -30 53 -55 98 -55 101 0 3 -15 29 -34 57 -36 54 -76 124
-127 221 -17 33 -37 67 -45 76 -8 8 -14 18 -14 22 0 4 -34 65 -75 137 -41 72
-75 133 -75 136 0 3 -28 53 -63 112 -35 59 -66 115 -70 124 -3 10 -22 43 -42
73 -19 31 -35 57 -35 60 0 2 -21 39 -46 82 -25 43 -50 87 -56 98 -5 11 -19 36
-31 57 -57 94 -169 296 -187 337 -6 13 -24 44 -40 68 -16 24 -33 55 -36 68 -3
14 -10 25 -14 25 -4 0 -13 12 -19 28 -16 36 -42 86 -51 92 -8 7 -130 217 -130
225 0 3 -8 18 -19 33 -23 33 -165 286 -206 367 -17 33 -43 79 -58 103 -16 24
-32 53 -38 65 -5 12 -20 40 -34 62 -13 22 -27 47 -31 55 -4 8 -28 50 -53 93
-68 115 -75 128 -171 297 -48 85 -101 182 -119 215 -17 33 -42 78 -56 100 -14
22 -37 65 -52 95 -16 30 -31 57 -34 60 -3 3 -21 33 -40 66 -19 34 -64 113
-100 175 -82 139 -141 243 -187 329 -19 36 -73 131 -119 213 -45 81 -83 149
-83 152 0 3 -16 29 -35 58 -19 28 -35 56 -35 60 0 5 -16 32 -35 61 -19 29 -35
57 -35 61 0 5 -6 16 -14 24 -7 9 -31 50 -52 91 -21 41 -52 98 -69 125 -18 28
-54 93 -82 145 -27 52 -61 113 -74 135 -14 22 -45 78 -70 125 -24 47 -47 87
-50 90 -3 3 -21 32 -39 65 -44 77 -143 181 -197 206 -53 24 -118 23 -162 -1z
m175 -886 c170 -105 143 -352 -45 -419 -90 -31 -164 -13 -237 60 -65 64 -84
127 -64 213 10 46 21 65 64 107 59 59 99 75 178 71 42 -2 69 -10 104 -32z
m-4183 -7101 l-2 -112 57 -3 57 -3 0 -40 0 -40 -90 -6 c-49 -3 -94 -4 -99 -1
-8 4 2 300 11 315 3 4 19 7 36 5 l32 -3 -2 -112z m212 -40 c-4 -87 -9 -161
-12 -165 -2 -5 -20 -8 -40 -8 l-36 0 6 135 c4 105 9 138 22 151 12 12 13 19 4
30 -9 12 -5 14 26 14 l37 0 -7 -157z m663 141 c32 -22 44 -58 43 -132 -1 -126
-64 -199 -148 -171 -27 9 -39 21 -54 54 -34 76 -5 208 53 249 29 21 77 20 106
0z m-465 -6 c10 -8 18 -29 20 -53 2 -40 2 -40 -33 -40 -29 0 -36 4 -38 23 -4
26 -20 29 -29 6 -4 -11 10 -31 46 -64 43 -40 51 -52 51 -83 0 -55 -35 -90 -91
-91 -49 -1 -109 20 -109 38 0 7 6 20 13 30 12 17 17 17 50 5 30 -10 39 -11 49
0 11 10 7 17 -17 37 -16 14 -40 33 -52 44 -35 29 -32 93 6 131 24 23 38 29 73
29 24 0 52 -6 61 -12z m244 -3 c31 -22 37 -61 15 -105 -16 -34 -17 -40 -3 -68
21 -46 -2 -103 -49 -119 -40 -14 -156 -17 -164 -5 -3 5 1 73 7 152 l12 145 30
6 c56 12 130 9 152 -6z m395 -5 c4 -8 16 -33 26 -55 l17 -40 3 58 3 57 41 0
41 0 -7 -37 c-3 -21 -6 -90 -6 -154 l0 -117 -32 -5 c-18 -2 -38 -1 -44 4 -6 5
-22 41 -35 80 l-24 71 -7 -39 c-4 -21 -7 -57 -7 -81 l-1 -43 -37 3 -38 3 2 85
c1 47 5 118 9 158 l6 73 40 -3 c23 -2 45 -10 50 -18z"/>
<path d="M1871 976 c-14 -17 -28 -115 -23 -154 5 -34 35 -23 49 18 16 47 16
112 0 134 -12 16 -14 16 -26 2z"/>
<path d="M1618 963 c-25 -6 -23 -43 1 -43 22 0 45 25 36 40 -6 10 -9 11 -37 3z"/>
<path d="M1607 843 c-12 -12 -7 -43 7 -43 18 0 39 27 31 40 -7 11 -28 13 -38
3z"/>
</g>
</svg>
